<svg xmlns="http://www.w3.org/2000/svg" xmlns:xlink="http://www.w3.org/1999/xlink" width="500" zoomAndPan="magnify" viewBox="0 0 375 374.999991" height="500" preserveAspectRatio="xMidYMid meet" version="1.0"><defs><clipPath id="229494d5eb"><path d="M 0 32.046875 L 31 32.046875 L 31 67 L 0 67 Z M 0 32.046875 " clip-rule="nonzero"/></clipPath></defs><path fill="#57b400" d="M 83.050781 173.054688 L 0.445312 125.363281 L 0.445312 220.753906 Z M 83.050781 173.054688 " fill-opacity="1" fill-rule="nonzero"/><path fill="#57b400" d="M 111.964844 89.433594 L 64.558594 62.074219 L 64.558594 116.808594 Z M 111.964844 89.433594 " fill-opacity="1" fill-rule="nonzero"/><g clip-path="url(#229494d5eb)"><path fill="#57b400" d="M 30.691406 49.476562 L 0.445312 32.003906 L 0.445312 66.933594 Z M 30.691406 49.476562 " fill-opacity="1" fill-rule="nonzero"/></g><path fill="#57b400" d="M 50.855469 93.632812 L 20.605469 76.171875 L 20.605469 111.09375 Z M 50.855469 93.632812 " fill-opacity="1" fill-rule="nonzero"/><path fill="#57b400" d="M 111.964844 142.828125 L 81.714844 125.363281 L 81.714844 160.289062 Z M 111.964844 142.828125 " fill-opacity="1" fill-rule="nonzero"/><path fill="#a3ff4d" d="M 174.042969 135.910156 L 204.289062 153.371094 L 174.042969 170.835938 Z M 134.398438 130.863281 L 134.398438 76.128906 L 181.800781 103.492188 Z M 116.308594 44.800781 L 116.308594 162.171875 L 171.160156 193.839844 L 116.308594 225.511719 L 116.308594 342.882812 L 374.457031 193.839844 L 116.308594 44.800781 " fill-opacity="1" fill-rule="nonzero"/></svg>